# xmcd
#
# Track frame offsets: 
#        150
#        9216
#        17867
#        29590
#        38987
#        49403
#        60802
#        71359
#        80779
#        89891
#        97814
#        104709
#
# Disc length: 1492 seconds
#
# Revision: 0
# Processed by: cddbd v1.5.1PL2 Copyright (c) Steve Scherf et al.
# Submitted via: ExactAudioCopy v0.95b4
#
DISCID=9b05d20c
DTITLE=Betty Misheiker - Liedtjies Sal Jy Dit Glo
DYEAR=1900
DGENRE=Celtic
TTITLE0=Sal Jy Dit Glo
TTITLE1=Krokodil
TTITLE2=Die Eende
TTITLE3=Skoenmaker
TTITLE4=Handjies Klap
TTITLE5=Die Mier
TTITLE6=Die Lappop
TTITLE7=Die Olifant
TTITLE8=Opstaan
TTITLE9=Almal Dra 'n Jas
TTITLE10=Buite In Die Maanlig
TTITLE11=wiegelied
EXTD=
EXTT0=
EXTT1=
EXTT2=
EXTT3=
EXTT4=
EXTT5=
EXTT6=
EXTT7=
EXTT8=
EXTT9=
EXTT10=
EXTT11=
PLAYORDER=
